<svg xmlns="http://www.w3.org/2000/svg" viewBox="0 0 512 512">
  <defs>
    <linearGradient id="bgGrad" x1="0%" y1="0%" x2="100%" y2="100%">
      <stop offset="0%" style="stop-color:#3B82F6"/>
      <stop offset="100%" style="stop-color:#1D4ED8"/>
    </linearGradient>
    <linearGradient id="coinGrad" x1="0%" y1="0%" x2="100%" y2="100%">
      <stop offset="0%" style="stop-color:#FCD34D"/>
      <stop offset="100%" style="stop-color:#F59E0B"/>
    </linearGradient>
  </defs>
  
  <!-- Background -->
  <rect width="512" height="512" rx="96" fill="url(#bgGrad)"/>
  
  <!-- Wallet Body -->
  <rect x="80" y="160" width="280" height="200" rx="24" fill="#FFFFFF" opacity="0.95"/>
  <rect x="80" y="160" width="280" height="60" rx="24" fill="#E5E7EB"/>
  <rect x="80" y="196" width="280" height="24" fill="#E5E7EB"/>
  
  <!-- Wallet Flap -->
  <path d="M80 184 L80 160 Q80 136 104 136 L336 136 Q360 136 360 160 L360 184 Q320 200 220 200 Q120 200 80 184Z" fill="#F3F4F6"/>
  
  <!-- Coin Stack -->
  <ellipse cx="380" cy="320" rx="72" ry="24" fill="#D97706"/>
  <ellipse cx="380" cy="300" rx="72" ry="24" fill="url(#coinGrad)"/>
  <ellipse cx="380" cy="280" rx="72" ry="24" fill="#D97706"/>
  <ellipse cx="380" cy="260" rx="72" ry="24" fill="url(#coinGrad)"/>
  <ellipse cx="380" cy="240" rx="72" ry="24" fill="#D97706"/>
  <ellipse cx="380" cy="220" rx="72" ry="24" fill="url(#coinGrad)"/>
  
  <!-- Rupee Symbol on Coin -->
  <text x="380" y="232" font-family="Arial, sans-serif" font-size="36" font-weight="bold" fill="#92400E" text-anchor="middle">₹</text>
  
  <!-- Growth Arrow -->
  <path d="M120 320 L180 280 L240 300 L300 240" stroke="#10B981" stroke-width="12" stroke-linecap="round" stroke-linejoin="round" fill="none"/>
  <polygon points="300,220 320,250 290,250" fill="#10B981"/>
  
  <!-- Card Lines -->
  <rect x="110" y="380" width="80" height="8" rx="4" fill="#D1D5DB"/>
  <rect x="110" y="400" width="120" height="8" rx="4" fill="#D1D5DB"/>
</svg>
